# xmcd
#
# Track frame offsets: 
#        150
#        14470
#        31352
#        58882
#        86180
#        138532
#        155632
#        184255
#        207357
#        221632
#        251645
#
# Disc length: 3822 seconds
#
# Revision: 5
# Processed by: cddbd v1.5.2PL0 Copyright (c) Steve Scherf et al.
# Submitted via: ExactAudioCopyFreeDBPlugin 1.0
#
DISCID=a90eec0b
DTITLE=Yo-Yo Ma - Soul of the Tango - The music of Astor Piazzolla
DYEAR=1997
DGENRE=Tango
TTITLE0=Tres minutos con la realidad
TTITLE1=Tango Suite - Andante
TTITLE2=Tango Suite - Allegro
TTITLE3=Tango Suite - Sur: Regreso al amor
TTITLE4=Tango Suite - Le Grand Tango
TTITLE5=Tango Suite - Fugata
TTITLE6=Tango Remembrances
TTITLE7=Mumuki
TTITLE8=Libertango
TTITLE9=Milonga del Ángel
TTITLE10=Café 1930
EXTD=YEAR: 1997
EXTT0=*Astor Piazzolla
EXTT1=*Astor Piazzolla
EXTT2=*Astor Piazzolla
EXTT3=*Astor Piazzolla
EXTT4=*Astor Piazzolla
EXTT5=*Astor Piazzolla
EXTT6=*Jorge Calandrelli - Astor Piazzolla\n***Yo-Yo Ma, cello (4/97) 
EXTT6=+ Piazzolla, bandone n (4/87)
EXTT7=*Astor Piazzolla
EXTT8=*Astor Piazzolla
EXTT9=*Astor Piazzolla
EXTT10=*Astor Piazzolla
PLAYORDER=
